<svg width="28" height="30" viewBox="0 0 28 30" fill="none" xmlns="http://www.w3.org/2000/svg">
<path d="M3.33317 29.6667V27H24.6665V29.6667H3.33317ZM3.33317 3.00001V0.333344H24.6665V3.00001H3.33317ZM13.9998 16.3333C15.1109 16.3333 16.0554 15.9445 16.8332 15.1667C17.6109 14.3889 17.9998 13.4445 17.9998 12.3333C17.9998 11.2222 17.6109 10.2778 16.8332 9.50001C16.0554 8.72223 15.1109 8.33334 13.9998 8.33334C12.8887 8.33334 11.9443 8.72223 11.1665 9.50001C10.3887 10.2778 9.99984 11.2222 9.99984 12.3333C9.99984 13.4445 10.3887 14.3889 11.1665 15.1667C11.9443 15.9445 12.8887 16.3333 13.9998 16.3333ZM3.33317 25.6667C2.59984 25.6667 1.97206 25.4056 1.44984 24.8833C0.927615 24.3611 0.666504 23.7333 0.666504 23V7.00001C0.666504 6.26668 0.927615 5.6389 1.44984 5.11668C1.97206 4.59445 2.59984 4.33334 3.33317 4.33334H24.6665C25.3998 4.33334 26.0276 4.59445 26.5498 5.11668C27.0721 5.6389 27.3332 6.26668 27.3332 7.00001V23C27.3332 23.7333 27.0721 24.3611 26.5498 24.8833C26.0276 25.4056 25.3998 25.6667 24.6665 25.6667H3.33317ZM5.6665 23C6.6665 21.7556 7.87761 20.7778 9.29984 20.0667C10.7221 19.3556 12.2887 19 13.9998 19C15.7109 19 17.2776 19.3556 18.6998 20.0667C20.1221 20.7778 21.3332 21.7556 22.3332 23H24.6665V7.00001H3.33317V23H5.6665ZM9.59984 23H18.3998C17.7554 22.5556 17.0609 22.2222 16.3165 22C15.5721 21.7778 14.7998 21.6667 13.9998 21.6667C13.1998 21.6667 12.4276 21.7778 11.6832 22C10.9387 22.2222 10.2443 22.5556 9.59984 23ZM13.9998 13.6667C13.6221 13.6667 13.3054 13.5389 13.0498 13.2833C12.7943 13.0278 12.6665 12.7111 12.6665 12.3333C12.6665 11.9556 12.7943 11.6389 13.0498 11.3833C13.3054 11.1278 13.6221 11 13.9998 11C14.3776 11 14.6943 11.1278 14.9498 11.3833C15.2054 11.6389 15.3332 11.9556 15.3332 12.3333C15.3332 12.7111 15.2054 13.0278 14.9498 13.2833C14.6943 13.5389 14.3776 13.6667 13.9998 13.6667Z" fill="#636060"/>
</svg>
